<svg id="svg" version="1.1" xmlns="http://www.w3.org/2000/svg" xmlns:xlink="http://www.w3.org/1999/xlink" width="400" height="400" viewBox="0, 0, 400,400"><g id="svgg"><path id="path0" d="M155.392 86.665 C 154.277 87.780,154.977 89.446,157.945 92.746 C 162.064 97.326,164.473 100.681,166.353 104.460 C 171.720 115.243,177.021 118.906,182.748 115.790 C 189.421 112.158,190.053 108.054,184.645 103.470 C 182.898 101.988,177.935 98.800,177.375 98.800 C 177.275 98.800,175.552 97.613,173.547 96.161 C 171.541 94.710,168.447 92.798,166.672 91.912 C 164.897 91.026,163.164 90.021,162.822 89.678 C 160.168 87.019,156.518 85.539,155.392 86.665 " stroke="none" fill="#b22430" fill-rule="evenodd"></path><path id="path1" d="M253.200 42.226 C 248.446 43.254,239.822 48.023,235.293 52.129 C 233.152 54.070,230.386 56.357,229.146 57.212 C 226.077 59.329,224.908 60.972,220.185 69.800 C 219.478 71.120,218.473 72.991,217.950 73.957 C 217.022 75.673,215.911 76.904,210.873 81.800 C 209.515 83.120,207.908 84.868,207.302 85.684 C 204.636 89.276,200.040 87.645,192.400 80.396 C 190.108 78.221,188.687 77.385,180.400 73.337 C 175.230 70.811,170.100 68.282,169.000 67.716 C 167.900 67.149,165.521 65.923,163.713 64.991 C 159.466 62.800,156.389 62.214,149.200 62.226 C 136.947 62.246,132.370 65.019,129.435 74.200 C 128.461 77.249,128.529 89.192,129.537 92.085 C 129.943 93.248,130.504 94.920,130.785 95.800 C 131.334 97.517,132.283 98.930,135.220 102.400 C 136.244 103.610,137.784 105.927,138.641 107.549 C 139.499 109.170,141.435 111.870,142.945 113.549 C 149.135 120.430,149.391 123.257,144.200 127.412 C 127.570 140.721,121.411 147.936,119.768 156.034 C 118.900 160.313,119.229 176.923,120.220 178.840 C 120.539 179.456,120.800 180.309,120.800 180.734 C 120.800 183.442,126.242 189.365,131.000 191.836 C 134.047 193.419,135.653 194.472,137.200 195.902 C 142.443 200.747,147.334 201.971,161.684 202.030 C 165.708 202.046,169.810 202.190,170.800 202.349 L 172.600 202.639 170.099 203.573 C 168.724 204.087,166.384 205.309,164.899 206.289 C 161.930 208.248,162.612 208.182,155.673 207.190 C 151.411 206.581,123.462 206.891,120.823 207.577 C 119.846 207.831,117.825 208.575,116.333 209.230 C 114.273 210.134,112.388 210.565,108.513 211.018 C 102.474 211.724,99.964 212.730,96.000 216.031 C 94.569 217.223,91.242 219.287,88.600 220.623 C 80.132 224.903,70.230 230.092,69.200 230.788 C 68.296 231.399,61.642 234.948,55.400 238.148 C 53.201 239.275,44.542 247.249,36.666 255.399 C 33.040 259.151,32.187 262.143,32.242 270.917 C 32.292 279.073,32.842 281.419,35.729 285.800 C 40.052 292.360,42.027 293.203,55.000 294.030 C 61.688 294.456,63.119 294.675,66.921 295.853 C 71.351 297.226,77.750 297.997,84.744 297.999 C 87.170 298.000,88.298 298.244,91.144 299.385 C 93.045 300.147,95.950 301.070,97.600 301.436 C 99.250 301.802,101.829 302.717,103.330 303.471 C 104.832 304.224,107.421 305.180,109.084 305.596 C 110.748 306.012,112.939 306.788,113.954 307.322 C 114.969 307.855,116.970 308.917,118.400 309.680 C 119.830 310.444,122.980 312.117,125.400 313.399 C 130.337 316.012,132.276 317.479,138.600 323.385 C 147.091 331.313,148.296 332.273,152.097 334.139 C 154.134 335.139,156.430 336.310,157.200 336.741 C 162.148 339.512,168.996 342.575,171.778 343.260 C 173.550 343.696,176.620 344.781,178.600 345.671 C 186.601 349.266,192.706 352.140,194.600 353.203 C 197.428 354.790,200.275 355.536,205.329 356.012 C 208.557 356.317,210.470 356.734,212.559 357.589 C 218.078 359.848,217.534 359.802,238.400 359.776 C 259.701 359.750,260.419 359.685,266.817 357.217 C 268.540 356.553,271.716 355.731,273.875 355.390 C 286.326 353.426,302.536 342.511,312.394 329.454 C 313.357 328.178,315.354 325.968,316.830 324.543 C 318.307 323.117,319.923 321.107,320.422 320.075 C 320.921 319.044,321.571 317.722,321.865 317.138 C 322.159 316.554,322.400 315.721,322.400 315.287 C 322.400 314.853,322.685 314.261,323.034 313.972 C 323.730 313.394,326.400 308.301,326.400 307.551 C 326.400 307.294,326.998 306.164,327.729 305.041 C 328.926 303.202,330.245 299.404,331.007 295.600 C 331.161 294.830,331.704 293.645,332.214 292.966 C 333.134 291.740,335.200 287.070,335.200 286.216 C 335.200 285.970,335.567 285.056,336.016 284.185 C 338.628 279.115,338.907 277.427,339.087 265.600 C 339.314 250.793,338.976 247.760,336.513 242.487 C 335.728 240.807,335.457 239.370,335.192 235.487 C 334.659 227.674,334.028 225.485,330.334 218.626 C 325.159 209.017,324.004 207.017,322.425 204.931 C 321.608 203.851,319.890 201.085,318.607 198.784 C 312.996 188.717,309.673 184.798,299.420 176.146 C 295.439 172.787,286.707 164.755,286.004 163.805 C 284.241 161.422,281.405 156.252,280.518 153.800 C 279.960 152.260,278.969 150.202,278.316 149.226 C 277.092 147.400,276.233 140.860,277.076 139.787 C 277.630 139.081,281.238 136.943,285.000 135.092 C 292.580 131.360,297.200 128.826,301.030 126.300 C 303.214 124.860,306.069 123.041,307.375 122.259 C 310.159 120.590,323.896 107.451,326.882 103.600 C 330.502 98.932,335.803 94.215,339.560 92.319 C 353.770 85.148,353.730 71.499,339.465 59.826 C 332.833 54.399,331.885 54.200,312.600 54.200 C 295.358 54.200,295.747 54.154,289.282 56.981 C 284.652 59.005,284.248 58.992,283.978 56.800 C 283.163 50.180,279.764 45.095,274.912 43.233 C 270.870 41.682,258.392 41.103,253.200 42.226 M314.523 75.623 C 318.344 76.585,319.404 79.191,317.393 82.680 C 315.751 85.530,304.849 96.422,300.200 99.856 C 298.000 101.482,296.002 102.971,295.759 103.166 C 295.517 103.361,293.717 104.280,291.759 105.207 C 289.802 106.135,286.760 107.742,285.000 108.779 C 279.575 111.974,272.434 115.812,267.189 118.350 C 261.817 120.951,259.896 122.540,255.595 127.945 C 250.452 134.409,250.293 137.983,254.801 145.869 C 256.767 149.310,257.459 151.338,259.549 159.800 C 261.923 169.407,263.676 172.037,273.070 180.088 C 277.027 183.480,288.023 196.177,291.752 201.661 C 295.224 206.768,303.595 219.635,305.116 222.204 C 306.917 225.244,309.276 231.979,311.175 239.501 C 311.835 242.117,313.013 245.906,313.791 247.922 C 317.947 258.682,317.900 266.866,313.630 276.000 C 312.345 278.750,310.367 283.520,309.236 286.600 C 306.334 294.500,306.158 294.863,302.699 300.113 C 300.992 302.706,298.765 306.486,297.751 308.513 C 293.475 317.066,289.033 321.097,277.600 326.800 C 275.290 327.953,271.752 329.876,269.737 331.075 C 262.038 335.656,258.555 336.142,235.130 335.907 L 219.400 335.750 211.400 333.644 C 201.419 331.016,194.112 328.318,187.373 324.773 C 184.497 323.261,180.274 321.372,177.987 320.576 C 172.886 318.801,172.365 318.536,164.067 313.518 C 156.454 308.913,155.714 308.373,150.064 303.301 C 145.087 298.834,144.128 298.163,137.200 294.306 C 128.780 289.619,124.468 287.705,117.800 285.698 C 117.360 285.565,114.498 284.219,111.440 282.706 C 102.228 278.147,101.110 277.857,92.400 277.763 C 85.294 277.688,81.660 277.289,80.005 276.402 C 79.579 276.175,76.569 275.355,73.315 274.582 C 64.394 272.461,62.000 270.966,62.000 267.517 C 62.000 262.797,72.589 254.213,84.600 249.196 C 91.422 246.347,93.694 245.227,96.845 243.165 C 105.900 237.237,122.549 231.911,134.338 231.170 C 148.617 230.273,153.370 231.320,166.000 238.145 C 168.090 239.275,171.343 240.840,173.230 241.623 C 179.686 244.305,181.062 245.652,184.934 253.074 C 190.441 263.629,194.395 266.385,208.616 269.576 C 216.419 271.327,219.363 272.608,224.899 276.659 C 232.398 282.146,235.368 281.017,232.154 273.899 C 228.744 266.346,229.500 256.629,233.791 252.861 C 236.035 250.891,248.336 245.346,252.832 244.278 C 255.435 243.660,255.402 243.601,251.031 241.028 C 244.184 236.999,243.949 235.782,247.760 224.120 C 250.684 215.172,251.002 212.874,249.571 211.054 C 246.599 207.276,242.321 212.453,238.377 224.600 C 235.978 231.990,234.132 236.080,231.123 240.672 C 229.679 242.876,227.579 246.462,226.457 248.640 C 219.325 262.488,211.045 265.994,199.400 260.099 C 186.942 253.792,189.187 239.967,204.000 231.775 C 212.513 227.067,214.223 224.858,218.978 212.430 C 221.853 204.917,222.279 204.153,225.473 200.776 C 229.816 196.184,229.747 194.408,225.046 189.800 C 221.180 186.011,220.800 185.069,220.800 179.276 C 220.800 172.938,218.649 171.456,213.541 174.278 C 212.364 174.929,209.420 176.561,207.000 177.905 C 199.493 182.073,197.074 182.566,181.800 183.036 C 169.621 183.410,164.303 182.594,154.400 178.828 C 151.650 177.782,148.500 176.602,147.400 176.206 C 142.644 174.491,137.877 166.299,139.207 162.126 C 140.042 159.506,145.388 154.839,154.978 148.359 C 157.386 146.731,160.446 144.398,161.778 143.173 C 164.980 140.228,169.817 136.342,173.952 133.391 C 175.795 132.076,179.125 129.313,181.352 127.251 C 194.525 115.050,198.964 112.808,209.973 112.793 C 218.331 112.782,221.639 112.271,227.042 110.158 C 230.598 108.768,232.855 108.160,235.981 107.749 C 239.476 107.290,241.251 106.762,246.782 104.535 C 258.520 99.809,259.569 99.242,263.541 95.477 C 267.860 91.385,272.289 88.832,277.161 87.628 C 279.010 87.171,282.288 85.988,284.446 84.998 C 286.604 84.009,288.570 83.200,288.815 83.200 C 289.456 83.200,298.140 79.029,300.420 77.625 C 304.074 75.377,310.134 74.517,314.523 75.623 M252.072 77.300 C 256.945 81.195,242.417 99.497,235.776 97.830 C 231.155 96.670,238.012 83.586,245.730 78.839 C 248.452 77.165,251.100 76.522,252.072 77.300 M159.838 87.527 C 161.137 88.368,162.480 89.335,162.822 89.678 C 163.164 90.021,164.897 91.026,166.672 91.912 C 168.447 92.798,171.541 94.710,173.547 96.161 C 175.552 97.613,177.275 98.800,177.375 98.800 C 177.935 98.800,182.898 101.988,184.645 103.470 C 190.053 108.054,189.421 112.158,182.748 115.790 C 177.021 118.906,171.720 115.243,166.353 104.460 C 164.473 100.681,162.064 97.326,157.945 92.746 C 153.036 87.288,154.258 83.919,159.838 87.527 M209.941 136.956 C 202.721 139.536,200.955 150.472,206.892 155.836 C 213.391 161.707,222.105 157.058,222.703 147.400 C 223.131 140.488,216.118 134.749,209.941 136.956 M183.483 225.402 C 191.355 227.740,189.431 237.600,181.102 237.600 C 175.492 237.600,174.441 227.726,179.800 225.361 C 181.311 224.694,181.090 224.692,183.483 225.402 M257.200 244.381 C 257.200 244.877,260.340 247.009,261.500 247.300 C 262.628 247.582,262.641 247.209,261.543 246.031 C 260.246 244.639,257.200 243.482,257.200 244.381 " stroke="none" fill="#1c1c1c" fill-rule="evenodd"></path><path id="path2" d="M304.274 75.848 C 303.215 76.173,301.481 76.973,300.420 77.625 C 298.140 79.029,289.456 83.200,288.815 83.200 C 288.570 83.200,286.604 84.009,284.446 84.998 C 282.288 85.988,279.010 87.171,277.161 87.628 C 272.289 88.832,267.860 91.385,263.541 95.477 C 259.569 99.242,258.520 99.809,246.782 104.535 C 241.251 106.762,239.476 107.290,235.981 107.749 C 232.855 108.160,230.598 108.768,227.042 110.158 C 221.639 112.271,218.331 112.782,209.973 112.793 C 198.964 112.808,194.525 115.050,181.352 127.251 C 179.125 129.313,175.795 132.076,173.952 133.391 C 169.817 136.342,164.980 140.228,161.778 143.173 C 160.446 144.398,157.386 146.731,154.978 148.359 C 145.388 154.839,140.042 159.506,139.207 162.126 C 137.877 166.299,142.644 174.491,147.400 176.206 C 148.500 176.602,151.650 177.782,154.400 178.828 C 164.303 182.594,169.621 183.410,181.800 183.036 C 197.074 182.566,199.493 182.073,207.000 177.905 C 209.420 176.561,212.364 174.929,213.541 174.278 C 218.649 171.456,220.800 172.938,220.800 179.276 C 220.800 185.069,221.180 186.011,225.046 189.800 C 229.747 194.408,229.816 196.184,225.473 200.776 C 222.279 204.153,221.853 204.917,218.978 212.430 C 214.223 224.858,212.513 227.067,204.000 231.775 C 189.187 239.967,186.942 253.792,199.400 260.099 C 211.045 265.994,219.325 262.488,226.457 248.640 C 227.579 246.462,229.679 242.876,231.123 240.672 C 234.132 236.080,235.978 231.990,238.377 224.600 C 242.321 212.453,246.599 207.276,249.571 211.054 C 251.002 212.874,250.684 215.172,247.760 224.120 C 243.949 235.782,244.184 236.999,251.031 241.028 C 255.402 243.601,255.435 243.660,252.832 244.278 C 248.336 245.346,236.035 250.891,233.791 252.861 C 229.500 256.629,228.744 266.346,232.154 273.899 C 235.368 281.017,232.398 282.146,224.899 276.659 C 219.363 272.608,216.419 271.327,208.616 269.576 C 194.395 266.385,190.441 263.629,184.934 253.074 C 181.062 245.652,179.686 244.305,173.230 241.623 C 171.343 240.840,168.090 239.275,166.000 238.145 C 153.370 231.320,148.617 230.273,134.338 231.170 C 122.549 231.911,105.900 237.237,96.845 243.165 C 93.694 245.227,91.422 246.347,84.600 249.196 C 72.589 254.213,62.000 262.797,62.000 267.517 C 62.000 270.966,64.394 272.461,73.315 274.582 C 76.569 275.355,79.579 276.175,80.005 276.402 C 81.660 277.289,85.294 277.688,92.400 277.763 C 101.110 277.857,102.228 278.147,111.440 282.706 C 114.498 284.219,117.360 285.565,117.800 285.698 C 124.468 287.705,128.780 289.619,137.200 294.306 C 144.128 298.163,145.087 298.834,150.064 303.301 C 155.714 308.373,156.454 308.913,164.067 313.518 C 172.365 318.536,172.886 318.801,177.987 320.576 C 180.274 321.372,184.497 323.261,187.373 324.773 C 194.112 328.318,201.419 331.016,211.400 333.644 L 219.400 335.750 235.130 335.907 C 258.555 336.142,262.038 335.656,269.737 331.075 C 271.752 329.876,275.290 327.953,277.600 326.800 C 289.033 321.097,293.475 317.066,297.751 308.513 C 298.765 306.486,300.992 302.706,302.699 300.113 C 306.158 294.863,306.334 294.500,309.236 286.600 C 310.367 283.520,312.345 278.750,313.630 276.000 C 317.900 266.866,317.947 258.682,313.791 247.922 C 313.013 245.906,311.835 242.117,311.175 239.501 C 309.276 231.979,306.917 225.244,305.116 222.204 C 303.595 219.635,295.224 206.768,291.752 201.661 C 288.023 196.177,277.027 183.480,273.070 180.088 C 263.676 172.037,261.923 169.407,259.549 159.800 C 257.459 151.338,256.767 149.310,254.801 145.869 C 250.293 137.983,250.452 134.409,255.595 127.945 C 259.896 122.540,261.817 120.951,267.189 118.350 C 272.434 115.812,279.575 111.974,285.000 108.779 C 286.760 107.742,289.802 106.135,291.759 105.207 C 293.717 104.280,295.517 103.361,295.759 103.166 C 296.002 102.971,298.000 101.482,300.200 99.856 C 309.246 93.172,318.708 82.310,318.278 79.102 C 317.812 75.628,310.511 73.931,304.274 75.848 M248.930 77.376 C 240.527 80.003,229.996 96.379,235.776 97.830 C 240.438 99.000,250.633 89.338,252.553 81.930 C 253.667 77.628,252.563 76.240,248.930 77.376 M215.215 136.852 C 219.790 138.222,222.992 142.734,222.703 147.400 C 221.834 161.432,204.997 162.226,203.362 148.312 C 202.499 140.972,208.761 134.918,215.215 136.852 M179.800 225.361 C 174.441 227.726,175.492 237.600,181.102 237.600 C 183.881 237.600,187.204 235.657,188.278 233.405 C 190.289 229.188,184.205 223.416,179.800 225.361 M259.356 244.556 C 260.638 245.091,262.400 246.644,262.400 247.238 C 262.400 247.761,260.626 247.091,258.900 245.918 C 256.393 244.212,256.656 243.428,259.356 244.556 " stroke="none" fill="#1c6b52" fill-rule="evenodd"></path></g></svg>